<?xml version="1.0" standalone="no"?>
<!DOCTYPE svg PUBLIC "-//W3C//DTD SVG 20010904//EN"
 "http://www.w3.org/TR/2001/REC-SVG-20010904/DTD/svg10.dtd">
<svg version="1.0" xmlns="http://www.w3.org/2000/svg"
 width="512.000000pt" height="512.000000pt" viewBox="0 0 512.000000 512.000000"
 preserveAspectRatio="xMidYMid meet">
<metadata>
Created by potrace 1.14, written by Peter Selinger 2001-2017
</metadata>
<g transform="translate(0.000000,512.000000) scale(0.100000,-0.100000)"
fill="#000000" stroke="none">
<path d="M2501 5099 c-17 -14 -97 -146 -260 -432 -10 -17 -60 -104 -111 -192
-207 -357 -210 -362 -242 -460 -29 -86 -33 -265 -8 -359 84 -317 352 -530 672
-534 313 -4 578 191 679 500 25 74 34 243 18 328 -14 76 -52 166 -112 269 -27
47 -60 104 -72 126 -12 22 -87 153 -167 290 -79 138 -168 291 -196 340 -29 50
-58 97 -65 106 -31 41 -97 49 -136 18z"/>
<path d="M4075 4088 c-27 -16 -34 -26 -117 -168 -39 -69 -211 -366 -382 -660
-330 -570 -373 -650 -405 -747 -48 -144 -62 -365 -32 -508 61 -297 251 -548
524 -693 58 -31 185 -78 236 -87 14 -2 49 -9 76 -14 118 -22 337 -2 472 44 78
27 248 117 273 145 3 3 29 25 58 49 29 24 79 76 110 115 159 196 232 404 227
647 -4 163 -18 238 -73 375 -18 44 -181 335 -347 619 -67 114 -224 386 -257
445 -14 25 -48 83 -74 129 -62 105 -101 174 -137 237 -41 74 -100 102 -152 72z"/>
<path d="M1248 3783 c-15 -9 -32 -28 -39 -42 -7 -14 -18 -32 -24 -40 -5 -7
-26 -42 -45 -76 -33 -59 -142 -249 -165 -287 -5 -9 -17 -29 -26 -45 -22 -39
-272 -473 -391 -677 -54 -93 -98 -170 -98 -172 0 -2 -25 -44 -55 -95 -30 -50
-55 -93 -55 -94 0 -2 -26 -47 -58 -102 -32 -54 -62 -105 -65 -113 -4 -8 -23
-42 -42 -75 -125 -214 -178 -405 -179 -645 0 -174 5 -226 38 -350 96 -365 350
-675 684 -836 127 -61 163 -63 208 -8 20 25 24 26 58 14 41 -13 67 -18 143
-27 50 -5 53 -8 73 -48 42 -87 138 -87 180 0 20 42 22 42 83 49 34 3 87 13
117 21 54 14 55 14 75 -10 43 -52 89 -51 201 4 349 173 598 480 694 856 29
113 35 171 34 330 -1 255 -63 465 -207 704 -21 35 -47 79 -58 97 -10 19 -27
49 -37 67 -21 35 -166 287 -285 494 -42 72 -85 147 -95 165 -11 18 -101 175
-202 348 -100 173 -190 329 -200 345 -139 243 -135 236 -167 253 -30 16 -63
15 -95 -5z"/>
</g>
</svg>
